<mxfile host="Electron" agent="Mozilla/5.0 (Macintosh; Intel Mac OS X 10_15_7) AppleWebKit/537.36 (KHTML, like Gecko) draw.io/27.0.9 Chrome/134.0.6998.205 Electron/35.4.0 Safari/537.36" version="27.0.9">
  <diagram name="Page-1" id="sycvnaD_AKMuoig96uT-">
    <mxGraphModel dx="558" dy="363" grid="1" gridSize="10" guides="1" tooltips="1" connect="1" arrows="1" fold="1" page="1" pageScale="1" pageWidth="827" pageHeight="1169" math="0" shadow="0">
      <root>
        <mxCell id="0" />
        <mxCell id="1" parent="0" />
        <mxCell id="_J2f6U8OaYezgWQQVtLd-9" value="Staging&lt;br&gt;Cleansing" style="rounded=1;whiteSpace=wrap;html=1;" parent="1" vertex="1">
          <mxGeometry x="382" y="400" width="95" height="60" as="geometry" />
        </mxCell>
        <mxCell id="38wGrTOYtGOnGUqZzy71-24" style="edgeStyle=orthogonalEdgeStyle;rounded=0;orthogonalLoop=1;jettySize=auto;html=1;entryX=0;entryY=0.5;entryDx=0;entryDy=0;" edge="1" parent="1" source="38wGrTOYtGOnGUqZzy71-1" target="38wGrTOYtGOnGUqZzy71-23">
          <mxGeometry relative="1" as="geometry" />
        </mxCell>
        <mxCell id="38wGrTOYtGOnGUqZzy71-1" value="" style="image;aspect=fixed;html=1;points=[];align=center;fontSize=12;image=img/lib/azure2/integration/SQL_Data_Warehouses.svg;" vertex="1" parent="1">
          <mxGeometry x="382" y="307.5" width="64" height="65" as="geometry" />
        </mxCell>
        <mxCell id="38wGrTOYtGOnGUqZzy71-18" style="edgeStyle=orthogonalEdgeStyle;rounded=0;orthogonalLoop=1;jettySize=auto;html=1;" edge="1" parent="1" source="38wGrTOYtGOnGUqZzy71-3">
          <mxGeometry relative="1" as="geometry">
            <mxPoint x="380" y="340" as="targetPoint" />
            <Array as="points">
              <mxPoint x="350" y="400" />
              <mxPoint x="350" y="340" />
            </Array>
          </mxGeometry>
        </mxCell>
        <mxCell id="38wGrTOYtGOnGUqZzy71-26" value="&lt;font face=&quot;FiraCode Nerd Font&quot;&gt;ETL&lt;/font&gt;" style="edgeLabel;html=1;align=center;verticalAlign=middle;resizable=0;points=[];" vertex="1" connectable="0" parent="38wGrTOYtGOnGUqZzy71-18">
          <mxGeometry x="-0.6427" y="2" relative="1" as="geometry">
            <mxPoint x="4" y="2" as="offset" />
          </mxGeometry>
        </mxCell>
        <mxCell id="38wGrTOYtGOnGUqZzy71-15" style="edgeStyle=orthogonalEdgeStyle;rounded=0;orthogonalLoop=1;jettySize=auto;html=1;" edge="1" parent="1" source="38wGrTOYtGOnGUqZzy71-5">
          <mxGeometry relative="1" as="geometry">
            <mxPoint x="380" y="320" as="targetPoint" />
            <Array as="points">
              <mxPoint x="350" y="251" />
              <mxPoint x="350" y="320" />
            </Array>
          </mxGeometry>
        </mxCell>
        <mxCell id="38wGrTOYtGOnGUqZzy71-27" value="&lt;font face=&quot;FiraCode Nerd Font&quot;&gt;ETL&lt;/font&gt;" style="edgeLabel;html=1;align=center;verticalAlign=middle;resizable=0;points=[];" vertex="1" connectable="0" parent="38wGrTOYtGOnGUqZzy71-15">
          <mxGeometry x="-0.6516" y="-1" relative="1" as="geometry">
            <mxPoint x="4" y="-1" as="offset" />
          </mxGeometry>
        </mxCell>
        <mxCell id="38wGrTOYtGOnGUqZzy71-16" style="edgeStyle=orthogonalEdgeStyle;rounded=0;orthogonalLoop=1;jettySize=auto;html=1;" edge="1" parent="1" source="38wGrTOYtGOnGUqZzy71-4">
          <mxGeometry relative="1" as="geometry">
            <mxPoint x="380" y="330" as="targetPoint" />
            <Array as="points">
              <mxPoint x="300" y="330" />
              <mxPoint x="300" y="330" />
            </Array>
          </mxGeometry>
        </mxCell>
        <mxCell id="38wGrTOYtGOnGUqZzy71-25" value="&lt;font face=&quot;FiraCode Nerd Font&quot;&gt;ETL&lt;/font&gt;" style="edgeLabel;html=1;align=center;verticalAlign=middle;resizable=0;points=[];" vertex="1" connectable="0" parent="38wGrTOYtGOnGUqZzy71-16">
          <mxGeometry x="-0.5405" y="1" relative="1" as="geometry">
            <mxPoint x="18" y="1" as="offset" />
          </mxGeometry>
        </mxCell>
        <mxCell id="38wGrTOYtGOnGUqZzy71-19" value="" style="group" vertex="1" connectable="0" parent="1">
          <mxGeometry x="220" y="220" width="69" height="203" as="geometry" />
        </mxCell>
        <mxCell id="38wGrTOYtGOnGUqZzy71-3" value="Operational&lt;br&gt;Data&lt;br&gt;Sources" style="sketch=0;pointerEvents=1;shadow=0;dashed=0;html=1;strokeColor=none;fillColor=#505050;labelPosition=center;verticalLabelPosition=bottom;verticalAlign=top;outlineConnect=0;align=center;shape=mxgraph.office.users.csv_file;" vertex="1" parent="38wGrTOYtGOnGUqZzy71-19">
          <mxGeometry x="10" y="160" width="59" height="43" as="geometry" />
        </mxCell>
        <mxCell id="38wGrTOYtGOnGUqZzy71-4" value="" style="image;aspect=fixed;html=1;points=[];align=center;fontSize=12;image=img/lib/azure2/databases/SQL_Database.svg;" vertex="1" parent="38wGrTOYtGOnGUqZzy71-19">
          <mxGeometry x="10" y="74" width="48" height="64" as="geometry" />
        </mxCell>
        <mxCell id="38wGrTOYtGOnGUqZzy71-5" value="" style="image;aspect=fixed;html=1;points=[];align=center;fontSize=12;image=img/lib/azure2/other/Virtual_Instance_for_SAP.svg;" vertex="1" parent="38wGrTOYtGOnGUqZzy71-19">
          <mxGeometry width="68" height="62.839999999999996" as="geometry" />
        </mxCell>
        <mxCell id="38wGrTOYtGOnGUqZzy71-21" style="edgeStyle=orthogonalEdgeStyle;rounded=0;orthogonalLoop=1;jettySize=auto;html=1;entryX=0.746;entryY=0.999;entryDx=0;entryDy=0;entryPerimeter=0;" edge="1" parent="1" source="_J2f6U8OaYezgWQQVtLd-9" target="38wGrTOYtGOnGUqZzy71-1">
          <mxGeometry relative="1" as="geometry" />
        </mxCell>
        <mxCell id="38wGrTOYtGOnGUqZzy71-23" value="OLAP&lt;br&gt;Server" style="image;aspect=fixed;perimeter=ellipsePerimeter;html=1;align=center;shadow=0;dashed=0;spacingTop=3;image=img/lib/active_directory/database_cube.svg;" vertex="1" parent="1">
          <mxGeometry x="490" y="315" width="45" height="50" as="geometry" />
        </mxCell>
        <mxCell id="38wGrTOYtGOnGUqZzy71-28" value="Analyst" style="points=[];aspect=fixed;html=1;align=center;shadow=0;dashed=0;fillColor=#007FFF;strokeColor=none;shape=mxgraph.alibaba_cloud.user;labelPosition=center;verticalLabelPosition=bottom;verticalAlign=top;" vertex="1" parent="1">
          <mxGeometry x="570" y="315" width="60" height="60" as="geometry" />
        </mxCell>
        <mxCell id="38wGrTOYtGOnGUqZzy71-29" style="edgeStyle=orthogonalEdgeStyle;rounded=0;orthogonalLoop=1;jettySize=auto;html=1;entryX=-0.024;entryY=0.415;entryDx=0;entryDy=0;entryPerimeter=0;startArrow=classic;startFill=1;" edge="1" parent="1" source="38wGrTOYtGOnGUqZzy71-23" target="38wGrTOYtGOnGUqZzy71-28">
          <mxGeometry relative="1" as="geometry" />
        </mxCell>
      </root>
    </mxGraphModel>
  </diagram>
</mxfile>
